<svg xmlns="http://www.w3.org/2000/svg" xmlns:xlink="http://www.w3.org/1999/xlink" width="226" height="246" viewBox="0 0 226 246">
  <defs>
    <clipPath id="clip-path">
      <rect id="사각형_61" data-name="사각형 61" width="138.223" height="130.771" fill="none"/>
    </clipPath>
  </defs>
  <rect id="사각형_60" data-name="사각형 60" width="226" height="246" fill="#00c8ff"/>
  <g id="헬로콕_그래픽1" data-name="헬로콕 그래픽1" transform="translate(-465.728 -683.315)" opacity="0.3">
    <g id="그룹_68" data-name="그룹 68" transform="translate(553.228 798.514)" clip-path="url(#clip-path)">
      <g id="그룹_67" data-name="그룹 67" transform="translate(22.89 10.134)">
        <g id="그룹_65" data-name="그룹 65" transform="translate(55.541)">
          <path id="패스_26" data-name="패스 26" d="M619.064,875.752a5.278,5.278,0,0,1-4.954-7.1,97.227,97.227,0,0,1,74.843-62.237,5.275,5.275,0,1,1,1.761,10.4,86.654,86.654,0,0,0-66.7,55.478A5.279,5.279,0,0,1,619.064,875.752Z" transform="translate(-613.786 -806.339)" fill="#fff"/>
        </g>
        <g id="그룹_66" data-name="그룹 66" transform="translate(0 30.041)">
          <path id="패스_27" data-name="패스 27" d="M623.305,934.341a52.4,52.4,0,1,1,52.4-52.4A52.463,52.463,0,0,1,623.305,934.341Zm0-94.255a41.852,41.852,0,1,0,41.852,41.852A41.9,41.9,0,0,0,623.305,840.086Z" transform="translate(-570.902 -829.534)" fill="#fff"/>
        </g>
      </g>
    </g>
  </g>
  <text id="hello_I_m_your_cocktail" data-name="hello,
I’m your
cocktail" transform="translate(21 91)" fill="#fff" font-size="31" font-family="Montserrat-Bold, Montserrat" font-weight="700"><tspan x="0" y="0">hello,</tspan><tspan x="0" y="42">I’m your</tspan><tspan x="0" y="84">cocktail</tspan></text>
</svg>
