<svg xmlns="http://www.w3.org/2000/svg" xmlns:xlink="http://www.w3.org/1999/xlink" width="375.318" height="812" viewBox="0 0 375.318 812">
  <defs>
    <linearGradient id="linear-gradient" x1="0.5" y1="1" x2="0.5" gradientUnits="objectBoundingBox">
      <stop offset="0" stop-color="#ffffc3"/>
      <stop offset="0.2" stop-color="#b4f0d2"/>
      <stop offset="0.4" stop-color="#78e1e1"/>
      <stop offset="0.56" stop-color="#4ed6eb"/>
      <stop offset="0.65" stop-color="#3cd2f0"/>
      <stop offset="0.774" stop-color="#21cdf6"/>
      <stop offset="0.914" stop-color="#08c9fc"/>
      <stop offset="1" stop-color="#00c8ff"/>
    </linearGradient>
  </defs>
  <rect id="사각형_34" data-name="사각형 34" width="375.318" height="812" fill="url(#linear-gradient)"/>
  <g id="그룹_65" data-name="그룹 65" transform="translate(-262.058 173.473)">
    <g id="그룹_64" data-name="그룹 64" transform="translate(434.943 182.527)">
      <g id="그룹_62" data-name="그룹 62" transform="translate(19.457)">
        <path id="패스_26" data-name="패스 26" d="M443.813,206.844a1.846,1.846,0,0,1-1.735-2.485,34.063,34.063,0,0,1,26.219-21.8,1.848,1.848,0,1,1,.618,3.644,30.358,30.358,0,0,0-23.367,19.435A1.849,1.849,0,0,1,443.813,206.844Z" transform="translate(-441.964 -182.527)" fill="#fff"/>
      </g>
      <g id="그룹_63" data-name="그룹 63" transform="translate(0 10.524)">
        <path id="패스_27" data-name="패스 27" d="M444.758,227.662A18.358,18.358,0,1,1,463.115,209.3,18.379,18.379,0,0,1,444.758,227.662Zm0-33.02A14.662,14.662,0,1,0,459.419,209.3,14.679,14.679,0,0,0,444.758,194.643Z" transform="translate(-426.399 -190.946)" fill="#fff"/>
      </g>
    </g>
    <path id="패스_28" data-name="패스 28" d="M403.619,237.851a5.9,5.9,0,0,1,1.526,4.4v7.829h-2.463v-7.547a4.174,4.174,0,0,0-.95-2.978,3.573,3.573,0,0,0-2.721-1,4.243,4.243,0,0,0-3.156,1.168,4.566,4.566,0,0,0-1.155,3.35v7.008h-2.465V230.139H394.7V238.4a5.076,5.076,0,0,1,2.015-1.514,6.913,6.913,0,0,1,2.784-.54A5.619,5.619,0,0,1,403.619,237.851Z" transform="translate(0 11.907)" fill="#fff"/>
    <path id="패스_29" data-name="패스 29" d="M418.9,242.858H407.864a4.261,4.261,0,0,0,1.579,2.888,5.142,5.142,0,0,0,3.349,1.091,5.047,5.047,0,0,0,3.928-1.643l1.36,1.591a5.943,5.943,0,0,1-2.3,1.643,8.642,8.642,0,0,1-6.892-.321,6.3,6.3,0,0,1-2.58-2.476,7.1,7.1,0,0,1-.911-3.594,7.216,7.216,0,0,1,.885-3.568,6.366,6.366,0,0,1,2.439-2.478,6.955,6.955,0,0,1,3.505-.885,6.814,6.814,0,0,1,3.478.885,6.23,6.23,0,0,1,2.386,2.478,7.543,7.543,0,0,1,.86,3.645A7.089,7.089,0,0,1,418.9,242.858Zm-9.641-4.594a4.337,4.337,0,0,0-1.4,2.824h8.728a4.386,4.386,0,0,0-1.4-2.811,4.6,4.6,0,0,0-5.93-.012Z" transform="translate(3.292 13.149)" fill="#fff"/>
    <path id="패스_30" data-name="패스 30" d="M419.078,230.139h2.463v19.943h-2.463Z" transform="translate(6.713 11.907)" fill="#fff"/>
    <path id="패스_31" data-name="패스 31" d="M424.24,230.139h2.465v19.943H424.24Z" transform="translate(8.004 11.907)" fill="#fff"/>
    <path id="패스_32" data-name="패스 32" d="M432.488,248.1a6.52,6.52,0,0,1-2.529-2.478,7.5,7.5,0,0,1,0-7.162,6.43,6.43,0,0,1,2.529-2.465,7.923,7.923,0,0,1,7.278,0,6.46,6.46,0,0,1,2.515,2.465,7.482,7.482,0,0,1,0,7.162,6.552,6.552,0,0,1-2.515,2.478,7.816,7.816,0,0,1-7.278,0Zm5.994-1.861a4.269,4.269,0,0,0,1.631-1.7,5.613,5.613,0,0,0,0-5.005,4.194,4.194,0,0,0-1.631-1.681,4.97,4.97,0,0,0-4.7,0,4.269,4.269,0,0,0-1.643,1.681,5.488,5.488,0,0,0,0,5.005,4.347,4.347,0,0,0,1.643,1.7,4.88,4.88,0,0,0,4.7,0Z" transform="translate(9.207 13.149)" fill="#fff"/>
    <path id="패스_33" data-name="패스 33" d="M458.954,248.1a6.512,6.512,0,0,1-2.529-2.478,7.491,7.491,0,0,1,0-7.162,6.422,6.422,0,0,1,2.529-2.465,7.921,7.921,0,0,1,7.277,0,6.452,6.452,0,0,1,2.515,2.465,7.482,7.482,0,0,1,0,7.162,6.544,6.544,0,0,1-2.515,2.478,7.813,7.813,0,0,1-7.277,0Zm5.994-1.861a4.274,4.274,0,0,0,1.63-1.7,5.6,5.6,0,0,0,0-5.005,4.2,4.2,0,0,0-1.63-1.681,4.973,4.973,0,0,0-4.7,0,4.277,4.277,0,0,0-1.643,1.681,5.488,5.488,0,0,0,0,5.005,4.355,4.355,0,0,0,1.643,1.7,4.882,4.882,0,0,0,4.7,0Z" transform="translate(15.826 13.149)" fill="#fff"/>
    <path id="패스_34" data-name="패스 34" d="M446.324,248.1a6.582,6.582,0,0,1-2.553-2.478,7.393,7.393,0,0,1,0-7.162,6.491,6.491,0,0,1,2.553-2.465,7.653,7.653,0,0,1,3.71-.885,7.145,7.145,0,0,1,3.3.744,5.313,5.313,0,0,1,2.246,2.158l-1.875,1.206a4.2,4.2,0,0,0-1.59-1.464,4.549,4.549,0,0,0-2.106-.488,4.878,4.878,0,0,0-2.4.59,4.219,4.219,0,0,0-1.669,1.681,5.543,5.543,0,0,0,0,5.032,4.211,4.211,0,0,0,1.669,1.681,4.865,4.865,0,0,0,2.4.59,4.549,4.549,0,0,0,2.106-.488,4.194,4.194,0,0,0,1.59-1.463l1.875,1.18a5.384,5.384,0,0,1-2.246,2.169,7.028,7.028,0,0,1-3.3.759A7.563,7.563,0,0,1,446.324,248.1Z" transform="translate(12.658 13.149)" fill="#fff"/>
    <path id="패스_35" data-name="패스 35" d="M472.788,248.1a6.591,6.591,0,0,1-2.553-2.478,7.4,7.4,0,0,1,0-7.162,6.5,6.5,0,0,1,2.553-2.465,7.657,7.657,0,0,1,3.71-.885,7.142,7.142,0,0,1,3.3.744,5.307,5.307,0,0,1,2.246,2.158l-1.875,1.206a4.2,4.2,0,0,0-1.59-1.464,4.543,4.543,0,0,0-2.105-.488,4.879,4.879,0,0,0-2.4.59,4.227,4.227,0,0,0-1.669,1.681,5.553,5.553,0,0,0,0,5.032,4.218,4.218,0,0,0,1.669,1.681,4.866,4.866,0,0,0,2.4.59,4.544,4.544,0,0,0,2.105-.488,4.194,4.194,0,0,0,1.59-1.463l1.875,1.18a5.377,5.377,0,0,1-2.246,2.169,7.025,7.025,0,0,1-3.3.759A7.567,7.567,0,0,1,472.788,248.1Z" transform="translate(19.276 13.149)" fill="#fff"/>
    <path id="패스_36" data-name="패스 36" d="M487.976,243.741l-2.824,2.618v3.723h-2.463V230.139h2.463v13.113l7.421-6.776h2.977l-5.724,5.62,6.289,7.984h-3.028Z" transform="translate(22.622 11.907)" fill="#fff"/>
  </g>
</svg>
