<svg xmlns="http://www.w3.org/2000/svg" width="18.065" height="17.42" viewBox="0 0 18.065 17.42">
  <path id="Icon_ionic-ios-heart" data-name="Icon ionic-ios-heart" d="M15.626,3.937h-.04a4.586,4.586,0,0,0-3.829,2.1,4.586,4.586,0,0,0-3.829-2.1h-.04A4.556,4.556,0,0,0,3.375,8.491,9.81,9.81,0,0,0,5.3,13.839a33.759,33.759,0,0,0,6.456,6.218,33.759,33.759,0,0,0,6.456-6.218A9.81,9.81,0,0,0,20.14,8.491,4.556,4.556,0,0,0,15.626,3.937Z" transform="translate(-2.725 -3.288)" fill="none" stroke="#00c8ff" stroke-linecap="round" stroke-linejoin="round" stroke-width="1.3" opacity="0.7"/>
</svg>
